<svg width="60" height="74" viewBox="0 0 60 74" fill="none" xmlns="http://www.w3.org/2000/svg">
<path d="M10.5805 29.1177L25.5413 29.1176C28.6684 29.1133 31.0104 26.7509 31.0059 23.6054C31.0015 20.4598 28.653 18.1039 25.5259 18.1082L21.617 18.1136C18.49 18.1178 16.1414 15.7619 16.1369 12.6163C16.1325 9.47077 18.4745 7.10838 21.6015 7.10408L29.3798 7.10403" stroke="url(#paint0_linear_103_544)" stroke-width="7.03705" stroke-linecap="round" stroke-linejoin="round"/>
<path d="M12.3073 49.9173L22.0211 42.7217L33.256 42.7217C36.3831 42.7174 38.725 40.3551 38.7206 37.2095C38.7162 34.0639 36.3677 31.708 33.2405 31.7123L29.3317 31.7177C26.2045 31.722 23.856 29.366 23.8516 26.2204C23.8471 23.0749 26.189 20.7125 29.3162 20.7082L35.4913 20.7082L37.9206 20.7082L45.7519 20.7083" stroke="url(#paint1_linear_103_544)" stroke-width="7.03705" stroke-linecap="round" stroke-linejoin="round"/>
<path d="M40.8298 10.3106L50.067 19.6193L40.856 28.9533" stroke="url(#paint2_linear_103_544)" stroke-width="7.03705" stroke-linecap="round" stroke-linejoin="round"/>
<path d="M47.302 14.3738L37.5774 14.3739L29.7934 7.30729" stroke="url(#paint3_linear_103_544)" stroke-width="7.03705" stroke-linecap="round" stroke-linejoin="round"/>
<path d="M41.252 4.01202L50.071 13.9286L41.2799 23.8693" stroke="url(#paint4_linear_103_544)" stroke-width="7.03705" stroke-linecap="round" stroke-linejoin="round"/>
<path d="M6.15618 62.0026C6.15618 62.3821 6.10698 62.7405 6.0086 63.0778C5.9149 63.4105 5.76966 63.7009 5.57289 63.9493C5.37611 64.1976 5.12546 64.3943 4.82093 64.5396C4.52109 64.6848 4.16502 64.7574 3.75274 64.7574C3.50443 64.7574 3.28189 64.734 3.08512 64.6872C2.88834 64.645 2.70797 64.5771 2.54399 64.4834C2.3847 64.385 2.23478 64.2608 2.09422 64.1109C1.95836 63.961 1.82718 63.7829 1.70068 63.5768L1.68662 64.659L0.449766 64.4904L0.67465 61.2717L1.71473 61.3139C1.7569 61.5622 1.82249 61.8222 1.91151 62.094C2.00052 62.361 2.11765 62.607 2.26289 62.8319C2.41281 63.0567 2.59553 63.2418 2.81104 63.387C3.03124 63.5323 3.2936 63.6049 3.59813 63.6049C3.84175 63.6049 4.04555 63.5651 4.20953 63.4854C4.37819 63.4058 4.51406 63.2957 4.61713 63.1551C4.7202 63.0146 4.79282 62.8483 4.83499 62.6562C4.88184 62.4641 4.90526 62.2556 4.90526 62.0307C4.90526 61.7777 4.8631 61.5528 4.77877 61.3561C4.69912 61.1546 4.58668 60.9789 4.44144 60.829C4.29621 60.6744 4.1252 60.5432 3.92843 60.4355C3.73634 60.323 3.52785 60.227 3.30297 60.1473C3.04529 60.0583 2.79698 59.9646 2.55805 59.8662C2.32379 59.7678 2.10359 59.6601 1.89745 59.5429C1.69131 59.4211 1.50156 59.2876 1.32822 59.1424C1.15955 58.9925 1.01432 58.8214 0.892505 58.6294C0.770693 58.4373 0.67465 58.2194 0.604374 57.9758C0.538783 57.7322 0.505987 57.4534 0.505987 57.1395C0.505987 56.7506 0.56455 56.3922 0.681677 56.0643C0.798804 55.7363 0.967466 55.4552 1.18766 55.221C1.40786 54.982 1.67491 54.797 1.98881 54.6658C2.30271 54.5346 2.65643 54.469 3.04998 54.469C3.29829 54.469 3.51146 54.4924 3.68949 54.5393C3.87221 54.5861 4.03384 54.6588 4.17439 54.7572C4.31495 54.8555 4.44379 54.9797 4.56091 55.1296C4.67804 55.2749 4.79751 55.4482 4.91932 55.6497L4.93337 54.4971L6.15618 54.5252L6.00157 58.1093L4.90526 58.0672C4.87247 57.8938 4.83499 57.7158 4.79282 57.5331C4.75534 57.3457 4.70381 57.1653 4.63822 56.9919C4.57262 56.8186 4.49532 56.6546 4.4063 56.5C4.31729 56.3407 4.20953 56.2025 4.08304 56.0854C3.96122 55.9682 3.81833 55.8769 3.65435 55.8113C3.49037 55.741 3.30297 55.7059 3.09214 55.7059C2.87663 55.7059 2.68923 55.748 2.52994 55.8324C2.37533 55.912 2.24649 56.0221 2.14342 56.1627C2.04035 56.2985 1.96304 56.4578 1.91151 56.6405C1.86466 56.8186 1.84123 57.0036 1.84123 57.1957C1.84123 57.4675 1.88574 57.6994 1.97476 57.8915C2.06377 58.0835 2.18324 58.2499 2.33316 58.3904C2.48777 58.5263 2.6658 58.6434 2.86726 58.7418C3.06872 58.8402 3.28423 58.9292 3.5138 59.0089C3.86518 59.1353 4.20016 59.2853 4.51875 59.4586C4.83733 59.632 5.11843 59.8381 5.36206 60.077C5.60568 60.316 5.79777 60.5947 5.93832 60.9133C6.08356 61.2272 6.15618 61.5903 6.15618 62.0026ZM11.5253 60.8501C11.5253 61.0843 11.5112 61.3444 11.4831 61.6301C11.455 61.9159 11.4058 62.2064 11.3355 62.5016C11.2652 62.792 11.1715 63.0778 11.0544 63.3589C10.942 63.6354 10.7991 63.8813 10.6257 64.0968C10.4524 64.3123 10.2486 64.4857 10.0143 64.6169C9.78476 64.7481 9.51537 64.8136 9.20616 64.8136C8.91568 64.8136 8.66035 64.7598 8.44015 64.652C8.21995 64.5396 8.0302 64.3943 7.87091 64.2163C7.71162 64.0336 7.57809 63.8228 7.47034 63.5838C7.36258 63.3449 7.27591 63.0966 7.21032 62.8389C7.14941 62.5812 7.1049 62.3212 7.07679 62.0588C7.05337 61.7965 7.04165 61.5528 7.04165 61.328C7.04165 61.0937 7.05571 60.8313 7.08382 60.5409C7.11193 60.2504 7.15878 59.9576 7.22437 59.6624C7.29465 59.3626 7.38601 59.0721 7.49845 58.791C7.61558 58.5099 7.75847 58.2616 7.92713 58.0461C8.10048 57.8259 8.30428 57.6502 8.53853 57.519C8.77279 57.3878 9.04686 57.3222 9.36076 57.3222C9.64655 57.3222 9.8972 57.3784 10.1127 57.4909C10.3329 57.6033 10.5227 57.7533 10.682 57.9407C10.8459 58.1281 10.9795 58.3436 11.0825 58.5872C11.1903 58.8308 11.277 59.0838 11.3425 59.3462C11.4081 59.6039 11.455 59.8639 11.4831 60.1262C11.5112 60.3886 11.5253 60.6299 11.5253 60.8501ZM10.4149 60.8079C10.4149 60.7095 10.4102 60.583 10.4008 60.4284C10.3915 60.2738 10.3727 60.1098 10.3446 59.9365C10.3212 59.7631 10.2861 59.5898 10.2392 59.4165C10.1924 59.2431 10.1315 59.0862 10.0565 58.9456C9.98153 58.8051 9.88783 58.6926 9.77539 58.6083C9.66763 58.5193 9.5388 58.4748 9.38887 58.4748C9.20616 58.4748 9.04921 58.531 8.91802 58.6434C8.79153 58.7512 8.68143 58.8917 8.58773 59.0651C8.49871 59.2384 8.42609 59.4328 8.36987 59.6484C8.31365 59.8592 8.26914 60.0724 8.23635 60.2879C8.20824 60.4987 8.1895 60.6978 8.18013 60.8852C8.17076 61.0726 8.16607 61.2249 8.16607 61.342C8.16607 61.4404 8.17076 61.5669 8.18013 61.7215C8.1895 61.8714 8.20824 62.0331 8.23635 62.2064C8.26446 62.3798 8.30194 62.5531 8.34879 62.7265C8.40032 62.8951 8.46357 63.0497 8.53853 63.1903C8.61349 63.3308 8.70485 63.4456 8.81261 63.5346C8.92037 63.619 9.04686 63.6611 9.1921 63.6611C9.37013 63.6611 9.5224 63.6072 9.64889 63.4995C9.78008 63.3917 9.89018 63.2535 9.97919 63.0849C10.0729 62.9115 10.1479 62.7194 10.2041 62.5086C10.2603 62.2978 10.3025 62.0869 10.3306 61.8761C10.3634 61.6606 10.3844 61.4591 10.3938 61.2717C10.4079 61.0843 10.4149 60.9297 10.4149 60.8079ZM17.9344 63.5487L17.9063 64.7434L15.8824 64.8136L15.8402 63.6752C15.7465 63.8157 15.6341 63.9516 15.5029 64.0828C15.3764 64.2093 15.2358 64.3217 15.0812 64.4201C14.9313 64.5185 14.7697 64.5981 14.5963 64.659C14.4277 64.7153 14.2567 64.7434 14.0833 64.7434C13.8678 64.7434 13.6851 64.7082 13.5352 64.638C13.3852 64.5677 13.2587 64.4716 13.1557 64.3498C13.0526 64.228 12.9706 64.0898 12.9097 63.9352C12.8488 63.7759 12.8019 63.6096 12.7691 63.4362C12.7364 63.2582 12.7153 63.0802 12.7059 62.9021C12.6965 62.7194 12.6918 62.5461 12.6918 62.3821C12.6918 61.7449 12.6989 61.1101 12.7129 60.4776C12.7317 59.8404 12.7481 59.2009 12.7621 58.5591L12.0453 58.4888L12.1859 57.3644L13.999 57.4628C13.9756 58.3061 13.9521 59.14 13.9287 59.9646C13.91 60.7892 13.9006 61.6231 13.9006 62.4664C13.9006 62.5742 13.9123 62.6866 13.9357 62.8038C13.9592 62.9209 13.9966 63.0286 14.0482 63.127C14.1044 63.2207 14.177 63.298 14.266 63.3589C14.355 63.4198 14.4675 63.4503 14.6034 63.4503C14.8095 63.4503 14.9828 63.3941 15.1234 63.2816C15.2686 63.1645 15.3858 63.0216 15.4748 62.8529C15.5638 62.6843 15.627 62.5016 15.6645 62.3048C15.7067 62.108 15.7325 61.9276 15.7418 61.7637C15.7699 61.2483 15.7863 60.733 15.791 60.2176C15.7957 59.7022 15.8027 59.1869 15.8121 58.6715H15.1937L15.1234 57.5331L17.0208 57.5049L16.9084 63.4784L17.9344 63.5487ZM20.8087 63.5627L20.7666 64.7293L18.1945 64.6169V63.3941L18.7848 63.3519V55.7902H17.9274L17.9555 54.5534H20.2184L20.0497 63.4925L20.8087 63.5627ZM29.6565 62.0026C29.6565 62.3821 29.6073 62.7405 29.5089 63.0778C29.4152 63.4105 29.27 63.7009 29.0732 63.9493C28.8764 64.1976 28.6258 64.3943 28.3212 64.5396C28.0214 64.6848 27.6653 64.7574 27.253 64.7574C27.0047 64.7574 26.7822 64.734 26.5854 64.6872C26.3886 64.645 26.2083 64.5771 26.0443 64.4834C25.885 64.385 25.7351 64.2608 25.5945 64.1109C25.4587 63.961 25.3275 63.7829 25.201 63.5768L25.1869 64.659L23.9501 64.4904L24.1749 61.2717L25.215 61.3139C25.2572 61.5622 25.3228 61.8222 25.4118 62.094C25.5008 62.361 25.6179 62.607 25.7632 62.8319C25.9131 63.0567 26.0958 63.2418 26.3113 63.387C26.5315 63.5323 26.7939 63.6049 27.0984 63.6049C27.342 63.6049 27.5458 63.5651 27.7098 63.4854C27.8785 63.4058 28.0144 63.2957 28.1174 63.1551C28.2205 63.0146 28.2931 62.8483 28.3353 62.6562C28.3821 62.4641 28.4056 62.2556 28.4056 62.0307C28.4056 61.7777 28.3634 61.5528 28.2791 61.3561C28.1994 61.1546 28.087 60.9789 27.9417 60.829C27.7965 60.6744 27.6255 60.5432 27.4287 60.4355C27.2366 60.323 27.0281 60.227 26.8033 60.1473C26.5456 60.0583 26.2973 59.9646 26.0583 59.8662C25.8241 59.7678 25.6039 59.6601 25.3977 59.5429C25.1916 59.4211 25.0019 59.2876 24.8285 59.1424C24.6598 58.9925 24.5146 58.8214 24.3928 58.6294C24.271 58.4373 24.1749 58.2194 24.1047 57.9758C24.0391 57.7322 24.0063 57.4534 24.0063 57.1395C24.0063 56.7506 24.0648 56.3922 24.182 56.0643C24.2991 55.7363 24.4678 55.4552 24.688 55.221C24.9082 54.982 25.1752 54.797 25.4891 54.6658C25.803 54.5346 26.1567 54.469 26.5503 54.469C26.7986 54.469 27.0118 54.4924 27.1898 54.5393C27.3725 54.5861 27.5341 54.6588 27.6747 54.7572C27.8152 54.8555 27.9441 54.9797 28.0612 55.1296C28.1783 55.2749 28.2978 55.4482 28.4196 55.6497L28.4337 54.4971L29.6565 54.5252L29.5019 58.1093L28.4056 58.0672C28.3728 57.8938 28.3353 57.7158 28.2931 57.5331C28.2556 57.3457 28.2041 57.1653 28.1385 56.9919C28.0729 56.8186 27.9956 56.6546 27.9066 56.5C27.8176 56.3407 27.7098 56.2025 27.5833 56.0854C27.4615 55.9682 27.3186 55.8769 27.1546 55.8113C26.9907 55.741 26.8033 55.7059 26.5924 55.7059C26.3769 55.7059 26.1895 55.748 26.0302 55.8324C25.8756 55.912 25.7468 56.0221 25.6437 56.1627C25.5406 56.2985 25.4633 56.4578 25.4118 56.6405C25.365 56.8186 25.3415 57.0036 25.3415 57.1957C25.3415 57.4675 25.386 57.6994 25.475 57.8915C25.5641 58.0835 25.6835 58.2499 25.8335 58.3904C25.9881 58.5263 26.1661 58.6434 26.3676 58.7418C26.569 58.8402 26.7845 58.9292 27.0141 59.0089C27.3655 59.1353 27.7005 59.2853 28.019 59.4586C28.3376 59.632 28.6187 59.8381 28.8624 60.077C29.106 60.316 29.2981 60.5947 29.4386 60.9133C29.5839 61.2272 29.6565 61.5903 29.6565 62.0026ZM34.878 60.4144C34.878 60.7985 34.8639 61.1734 34.8358 61.5388L31.8139 61.595C31.8139 61.6934 31.8186 61.8129 31.828 61.9534C31.8374 62.0893 31.8514 62.2345 31.8702 62.3891C31.8936 62.539 31.924 62.689 31.9615 62.8389C32.0037 62.9841 32.0576 63.1177 32.1232 63.2395C32.1887 63.3566 32.2684 63.4526 32.3621 63.5276C32.4605 63.5979 32.5776 63.633 32.7135 63.633C32.8587 63.633 32.9829 63.5955 33.0859 63.5206C33.1937 63.4409 33.2804 63.3449 33.346 63.2324C33.4162 63.1153 33.4701 62.9888 33.5076 62.8529C33.5451 62.7171 33.5708 62.5882 33.5849 62.4664H34.8077C34.7655 62.7335 34.6953 63.0029 34.5969 63.2746C34.4985 63.5463 34.3673 63.7923 34.2033 64.0125C34.0393 64.2327 33.8402 64.4131 33.606 64.5536C33.3717 64.6895 33.0977 64.7574 32.7838 64.7574C32.4558 64.7574 32.1724 64.6965 31.9334 64.5747C31.6992 64.4482 31.5 64.2819 31.3361 64.0757C31.1721 63.8696 31.0386 63.633 30.9355 63.366C30.8324 63.0942 30.7528 62.8155 30.6966 62.5297C30.645 62.2392 30.6099 61.9487 30.5911 61.6583C30.5724 61.3678 30.563 61.0984 30.563 60.8501C30.563 60.6252 30.5747 60.3816 30.5982 60.1192C30.6263 59.8568 30.6708 59.5968 30.7317 59.3391C30.7926 59.0815 30.8746 58.8332 30.9777 58.5942C31.0854 58.3553 31.2189 58.1468 31.3782 57.9688C31.5375 57.786 31.7273 57.6408 31.9475 57.5331C32.1677 57.4206 32.423 57.3644 32.7135 57.3644C33.2101 57.3644 33.6013 57.444 33.8871 57.6033C34.1729 57.7579 34.3884 57.9735 34.5336 58.2499C34.6835 58.5216 34.7772 58.8449 34.8147 59.2197C34.8569 59.5898 34.878 59.988 34.878 60.4144ZM33.6552 60.0068C33.6552 59.8662 33.6458 59.7069 33.6271 59.5289C33.613 59.3509 33.5755 59.1822 33.5146 59.0229C33.4584 58.8636 33.3741 58.7301 33.2616 58.6223C33.1492 58.5146 32.9993 58.4607 32.8119 58.4607C32.6479 58.4607 32.5097 58.4982 32.3972 58.5731C32.2848 58.6434 32.1911 58.7371 32.1161 58.8542C32.0412 58.9714 31.9826 59.1072 31.9404 59.2618C31.8983 59.4118 31.8678 59.5664 31.8491 59.7257C31.8303 59.8803 31.8163 60.0325 31.8069 60.1825C31.8022 60.3324 31.7999 60.4659 31.7999 60.583H33.613C33.6411 60.3863 33.6552 60.1942 33.6552 60.0068ZM40.4368 63.4784L40.4087 64.6028L38.961 64.7434L38.8907 63.9282C38.7924 64.0359 38.6776 64.139 38.5464 64.2374C38.4199 64.3311 38.2817 64.4178 38.1318 64.4974C37.9865 64.5724 37.8343 64.6309 37.675 64.6731C37.5204 64.7199 37.3681 64.7434 37.2182 64.7434C36.9277 64.7434 36.6817 64.6872 36.4803 64.5747C36.2835 64.4576 36.1242 64.3053 36.0024 64.1179C35.8853 63.9258 35.8009 63.708 35.7494 63.4643C35.6979 63.2207 35.6721 62.9724 35.6721 62.7194C35.6721 62.4008 35.7236 62.1104 35.8267 61.848C35.9345 61.5856 36.082 61.3631 36.2694 61.1804C36.4615 60.993 36.6911 60.8501 36.9581 60.7517C37.2252 60.6486 37.518 60.5971 37.8366 60.5971C37.9631 60.5971 38.0872 60.6065 38.2091 60.6252C38.3356 60.6393 38.4597 60.6674 38.5815 60.7095C38.5909 60.6299 38.5956 60.5549 38.5956 60.4846C38.5956 60.4144 38.5956 60.3394 38.5956 60.2598C38.5956 60.2176 38.5932 60.1497 38.5886 60.056C38.5839 59.9576 38.5745 59.8498 38.5604 59.7327C38.5511 59.6109 38.5347 59.4867 38.5112 59.3602C38.4878 59.229 38.455 59.1119 38.4129 59.0089C38.3754 58.9011 38.3285 58.8144 38.2723 58.7488C38.2208 58.6786 38.1552 58.6434 38.0755 58.6434C37.9865 58.6434 37.8998 58.6739 37.8155 58.7348C37.7312 58.7957 37.6515 58.8753 37.5766 58.9737C37.5016 59.0674 37.4313 59.1752 37.3657 59.297C37.3048 59.4141 37.2486 59.5312 37.1971 59.6484C37.1455 59.7655 37.101 59.8756 37.0636 59.9787C37.0261 60.077 36.998 60.1567 36.9792 60.2176L35.7845 60.1614L35.7424 57.5471L36.909 57.519V58.545C36.9558 58.4232 37.0191 58.2967 37.0987 58.1655C37.1783 58.0344 37.2697 57.9172 37.3728 57.8142C37.4805 57.7064 37.5977 57.6197 37.7242 57.5541C37.8553 57.4839 37.9959 57.4487 38.1458 57.4487C38.5019 57.4487 38.7877 57.5026 39.0032 57.6104C39.2234 57.7181 39.3897 57.8704 39.5021 58.0672C39.6193 58.2592 39.6966 58.4935 39.734 58.7699C39.7715 59.0416 39.7903 59.3415 39.7903 59.6694C39.7903 60.3066 39.7856 60.9414 39.7762 61.5739C39.7668 62.2064 39.734 62.8412 39.6778 63.4784H40.4368ZM38.6237 63.0005V61.9745C38.5581 61.8808 38.4597 61.8199 38.3285 61.7918C38.202 61.7637 38.0849 61.7496 37.9771 61.7496C37.6398 61.7496 37.3657 61.8339 37.1549 62.0026C36.9441 62.1666 36.8387 62.4289 36.8387 62.7897C36.8387 63.0099 36.8972 63.1973 37.0144 63.3519C37.1315 63.5018 37.3072 63.5768 37.5414 63.5768C37.6164 63.5768 37.7148 63.5674 37.8366 63.5487C37.9631 63.5253 38.0826 63.4901 38.195 63.4433C38.3121 63.3964 38.4129 63.3379 38.4972 63.2676C38.5815 63.1926 38.6237 63.1036 38.6237 63.0005ZM44.6182 59.051C44.4402 59.0885 44.2669 59.1517 44.0982 59.2408C43.9295 59.3298 43.7796 59.4399 43.6484 59.5711C43.5172 59.6976 43.4118 59.8451 43.3322 60.0138C43.2525 60.1778 43.2127 60.3581 43.2127 60.5549C43.2127 61.0234 43.2104 61.4873 43.2057 61.9464C43.201 62.4055 43.194 62.8693 43.1846 63.3379L44.2106 63.38V64.645L40.7812 64.7153L40.8795 63.38L41.8072 63.3379L41.9056 58.8121L41.1607 58.8402L41.1185 57.5471L43.0019 57.3644V58.3342C43.1003 58.2546 43.2151 58.1679 43.3462 58.0742C43.4774 57.9805 43.6156 57.8915 43.7609 57.8071C43.9061 57.7228 44.0513 57.6478 44.1966 57.5822C44.3465 57.512 44.487 57.4628 44.6182 57.4347V59.051ZM49.664 57.4909L49.5938 60.3722L48.4553 60.3441C48.4506 60.2129 48.4319 60.0489 48.3991 59.8522C48.371 59.6507 48.3218 59.4563 48.2515 59.2689C48.1812 59.0768 48.0852 58.9128 47.9634 58.7769C47.8416 58.6411 47.6869 58.5731 47.4995 58.5731C47.3496 58.5731 47.2208 58.6223 47.113 58.7207C47.01 58.8191 46.9233 58.9456 46.853 59.1002C46.7827 59.2548 46.7265 59.4282 46.6843 59.6203C46.6422 59.8123 46.6094 60.0021 46.586 60.1895C46.5672 60.3769 46.5555 60.5526 46.5508 60.7166C46.5461 60.8758 46.5438 61.0047 46.5438 61.1031C46.5438 61.2108 46.5438 61.3467 46.5438 61.5107C46.5485 61.67 46.5578 61.841 46.5719 62.0237C46.5906 62.2017 46.6164 62.3821 46.6492 62.5648C46.6867 62.7428 46.7406 62.9045 46.8108 63.0497C46.8858 63.195 46.9772 63.3121 47.0849 63.4011C47.1974 63.4901 47.3356 63.5346 47.4995 63.5346C47.6916 63.5346 47.8509 63.469 47.9774 63.3379C48.1039 63.2067 48.2046 63.0497 48.2796 62.867C48.3593 62.6796 48.4131 62.4852 48.4412 62.2837C48.474 62.0823 48.4928 61.9089 48.4975 61.7637H49.6219C49.6172 62.0823 49.575 62.4149 49.4954 62.7616C49.4157 63.1083 49.2892 63.4292 49.1159 63.7244C48.9472 64.0148 48.7294 64.2561 48.4623 64.4482C48.1953 64.6356 47.8744 64.7293 47.4995 64.7293C47.1716 64.7293 46.8858 64.6754 46.6422 64.5677C46.4032 64.4599 46.1971 64.3147 46.0238 64.132C45.8551 63.9446 45.7169 63.7291 45.6091 63.4854C45.5014 63.2371 45.417 62.9794 45.3561 62.7124C45.2952 62.4407 45.2531 62.1642 45.2296 61.8831C45.2062 61.602 45.1945 61.3326 45.1945 61.075C45.1945 60.8501 45.2085 60.6041 45.2367 60.3371C45.2648 60.0653 45.3116 59.7936 45.3772 59.5219C45.4475 59.2501 45.5388 58.9854 45.6513 58.7277C45.7637 58.4701 45.9019 58.2428 46.0659 58.0461C46.2346 57.8493 46.429 57.6923 46.6492 57.5752C46.8741 57.4534 47.1341 57.3925 47.4293 57.3925C47.6635 57.3925 47.8861 57.4534 48.0969 57.5752C48.3077 57.697 48.4881 57.847 48.638 58.025L48.7786 57.4206L49.664 57.4909ZM55.7289 63.7173L55.5883 64.8558L53.227 64.7434L53.1989 63.619L53.8174 63.5487C53.8314 62.8975 53.8431 62.2509 53.8525 61.6091C53.8666 60.9672 53.8736 60.3207 53.8736 59.6694C53.8736 59.5523 53.8619 59.4328 53.8384 59.311C53.8197 59.1892 53.7846 59.0791 53.733 58.9807C53.6815 58.8777 53.6089 58.7933 53.5152 58.7277C53.4262 58.6622 53.3114 58.6294 53.1708 58.6294C53.0303 58.6294 52.9038 58.6645 52.7913 58.7348C52.6836 58.8004 52.5875 58.887 52.5032 58.9948C52.4235 59.1026 52.3533 59.2267 52.2924 59.3673C52.2361 59.5078 52.1893 59.6507 52.1518 59.7959C52.1143 59.9412 52.0862 60.0841 52.0675 60.2246C52.0487 60.3605 52.037 60.48 52.0323 60.583C52.0089 61.0796 51.9925 61.5739 51.9832 62.0659C51.9785 62.5578 51.9714 63.0521 51.9621 63.5487H52.5805L52.6508 64.6872L50.2192 64.7153V63.4081L50.9079 63.38L50.8658 55.6215L49.8397 55.5513L49.8678 54.3566L52.0464 54.2863L52.0886 58.278C52.1682 58.1421 52.2666 58.0156 52.3837 57.8985C52.5009 57.7814 52.6297 57.6806 52.7702 57.5963C52.9108 57.512 53.0607 57.4464 53.22 57.3995C53.3793 57.348 53.5409 57.3222 53.7049 57.3222C53.9157 57.3222 54.0961 57.3597 54.246 57.4347C54.396 57.5049 54.5225 57.601 54.6255 57.7228C54.7286 57.8399 54.8082 57.9805 54.8645 58.1445C54.9254 58.3037 54.9722 58.4724 55.005 58.6504C55.0378 58.8238 55.0589 59.0018 55.0683 59.1845C55.0776 59.3626 55.0823 59.5336 55.0823 59.6976C55.0823 60.3628 55.073 61.0234 55.0542 61.6793C55.0402 62.3352 55.0261 62.9958 55.012 63.6611L55.7289 63.7173Z" fill="#505050"/>
<defs>
<linearGradient id="paint0_linear_103_544" x1="23.5124" y1="29.1207" x2="23.4821" y2="7.10182" gradientUnits="userSpaceOnUse">
<stop stop-color="#3092EC"/>
<stop offset="1" stop-color="#77CEFF"/>
</linearGradient>
<linearGradient id="paint1_linear_103_544" x1="37.1125" y1="45.1773" x2="37.0823" y2="23.1584" gradientUnits="userSpaceOnUse">
<stop stop-color="#FF8B4A"/>
<stop offset="1" stop-color="#FFD338"/>
</linearGradient>
<linearGradient id="paint2_linear_103_544" x1="45.468" y1="28.947" x2="45.4424" y2="10.3042" gradientUnits="userSpaceOnUse">
<stop stop-color="#FFA776"/>
<stop offset="1" stop-color="#FFBE71"/>
</linearGradient>
<linearGradient id="paint3_linear_103_544" x1="18.6041" y1="29.324" x2="18.5738" y2="7.30505" gradientUnits="userSpaceOnUse">
<stop stop-color="#77CEFF"/>
<stop offset="1" stop-color="#77CEFF"/>
</linearGradient>
<linearGradient id="paint4_linear_103_544" x1="45.6826" y1="39.7779" x2="45.6554" y2="19.9206" gradientUnits="userSpaceOnUse">
<stop stop-color="#77CEFF"/>
<stop offset="1" stop-color="#77CEFF"/>
</linearGradient>
</defs>
</svg>
