<svg id="facebook" data-name="facebook" xmlns="http://www.w3.org/2000/svg" viewBox="0 0 195 195.09999"><defs><style>.cls-1{fill:#1877f2;}.cls-2{fill:#fff;}</style></defs><title>btn_facebook</title><path class="cls-1" d="M195,97.5A97.5,97.5,0,1,0,82.30005,193.8V125.6H57.4V97.4h24.9V75.9c0-24.4,14.5-38,36.7-38A133.337,133.337,0,0,1,140.7,40V63.8H128.5c-12.1,0-16,7.6-16,15.3V97.4h27.1l-4.3,28.2H112.6v68.2A97.50738,97.50738,0,0,0,195,97.5"/><path class="cls-2" d="M135.3999,125.7l4.3-28.2H112.6V79.2c0-7.7,3.9-15.3,16-15.3h12.2V40.1A134.976,134.976,0,0,0,119.1,38c-22.3,0-36.7,13.6-36.7,38V97.5H57.5v28.2H82.4v68.2a96.8661,96.8661,0,0,0,30.39991,0V125.7Z"/></svg>
